<?xml version="1.0" standalone="no"?><!DOCTYPE svg PUBLIC "-//W3C//DTD SVG 1.1//EN" "http://www.w3.org/Graphics/SVG/1.1/DTD/svg11.dtd"><svg t="1683000475272" class="icon" viewBox="0 0 1050 1024" version="1.1" xmlns="http://www.w3.org/2000/svg" p-id="7019" xmlns:xlink="http://www.w3.org/1999/xlink" width="205.078125" height="200"><path d="M62 62m163.46153848 0l596.1538459 0q163.46153848 0 163.46153848 163.46153848l0 573.07692305q0 163.46153848-163.46153848 163.46153847l-596.1538459 0q-163.46153848 0-163.46153848-163.46153847l0-573.07692305q0-163.46153848 163.46153848-163.46153848Z" fill="#00005B" p-id="7020"></path><path d="M424.78076885 600.46153877H281.73846113l-29.1038458 90.58076894A7.28461582 7.28461582 0 0 1 245.20384619 696.61538457H172.75384619q-6.19615371 0-4.33461533-6.81153838l123.84615411-355.20384638q1.85769229-5.57307685 3.71538456-12.69230713a114.40769239 114.40769239 0 0 0 3.02307627-24.53461612 3.83461523 3.83461523 0 0 1 4.33461534-4.33461533h98.45769287q4.32307705 0 4.95384609 3.09615381L546.76923066 690.42307695q1.85769229 6.19615371-3.71538457 6.19230762h-80.4999999a5.72307715 5.72307715 0 0 1-6.19230762-4.33461533z m-120.74999942-76.37692325h97.83846124q-3.71538457-12.37692305-8.66923067-27.86538515-4.96153828-15.46923076-10.52692295-33.12692227l-11.14615371-35.29615429q-5.57307685-17.6500002-10.21923105-34.0576919-4.6423081-16.40000039-8.35769268-30.03461543h-0.61923076a499.36538497 499.36538497 0 0 1-13.00384599 49.53846094q-8.68076894 27.86538428-17.64615323 56.96923096-8.98461562 29.11538496-17.6500002 53.87307715zM842.14230752 393.57692334v235.77692255q0 15.48846123 0.30769277 27.55769239 0.3076919 12.07692334 1.23846153 21.0538459c0.61923076 5.98846114 1.13461523 9.57692285 1.54999951 13.69230821 0.40769209 3.31153857-1.03461504 4.95769219-4.33461534 4.95769219h-66.25769237a7.26923057 7.26923057 0 0 1-7.43076915-4.33461534 93.28846113 93.28846113 0 0 1-2.16538418-9.60000029 40.73076914 40.73076914 0 0 1-0.93076962-8.12307656 110.51538487 110.51538487 0 0 1-43.34615333 23.84230781 167.53461504 167.53461504 0 0 1-42.73076953 5.88461484 127.71153809 127.71153809 0 0 1-41.79230771-6.50384561 81.53846192 81.53846192 0 0 1-32.81923125-21.05384677 99.20000039 99.20000039 0 0 1-21.67307666-37.15384571 169.94999971 169.94999971 0 0 1-7.74230801-54.8038459V394.19615411a4.37692324 4.37692324 0 0 1 4.95384697-4.9538461h73.58846133a4.38461543 4.38461543 0 0 1 4.95384609 4.9538461v180.66538476q0 25.40000039 11.14615372 39.94230761c7.43461523 9.70384658 22.39230762 14.55000029 39.73076894 14.54999942a70.26153838 70.26153838 0 0 0 26.00769288-4.64230723 98.0499999 98.0499999 0 0 0 24.39999931-12.692308V393.57692334c0-2.88461513 1.85769229-4.33846143 5.57307773-4.33846143h73.43846104a3.83846133 3.83846133 0 0 1 4.33461533 4.33846143z" fill="#9999FF" p-id="7021"></path></svg>